<?xml version="1.0" standalone="no"?>
<!DOCTYPE svg PUBLIC "-//W3C//DTD SVG 20010904//EN"
 "http://www.w3.org/TR/2001/REC-SVG-20010904/DTD/svg10.dtd">
<svg version="1.0" xmlns="http://www.w3.org/2000/svg"
 width="200.000000pt" height="274.000000pt" viewBox="0 0 200.000000 274.000000"
 preserveAspectRatio="xMidYMid meet">
<metadata>
Created by potrace 1.16, written by Peter Selinger 2001-2019
</metadata>
<g transform="translate(0.000000,274.000000) scale(0.100000,-0.100000)"
fill="#000000" stroke="none">
<path d="M0 1370 l0 -1370 1000 0 1000 0 0 1370 0 1370 -1000 0 -1000 0 0
-1370z m110 164 c0 -8 13 -43 28 -77 18 -40 31 -89 35 -134 7 -68 6 -71 -13
-66 -28 8 -72 56 -87 95 -16 46 -16 132 2 174 14 34 35 39 35 8z m1844 -35
c16 -81 -1 -156 -47 -204 -37 -39 -84 -58 -74 -30 4 9 10 42 14 73 4 41 17 73
45 116 21 32 38 63 38 68 0 22 18 4 24 -23z m-1627 -6 c3 -7 -10 -15 -32 -19
l-36 -6 20 -22 c19 -21 20 -23 4 -39 -15 -15 -15 -17 -1 -22 9 -4 28 1 42 10
23 15 26 16 26 1 0 -19 29 -108 40 -119 4 -4 5 26 2 68 -5 76 -5 77 19 73 21
-3 25 -10 30 -58 14 -127 94 -188 193 -146 39 16 63 46 77 99 6 22 16 37 25
37 21 0 27 -23 16 -64 -14 -48 -1 -46 27 4 21 38 25 40 70 40 53 0 75 16 86
62 7 27 6 28 -23 22 -22 -4 -73 7 -169 37 -76 23 -142 46 -148 51 -5 4 179 8
408 8 229 0 417 -2 417 -4 0 -3 -53 -21 -117 -41 -65 -20 -133 -41 -151 -47
-19 -5 -47 -8 -63 -4 -33 6 -35 0 -14 -50 14 -35 15 -35 71 -33 56 3 57 2 75
-33 24 -48 40 -58 33 -21 -11 58 -10 68 12 71 18 2 23 -3 28 -31 12 -63 72
-117 131 -117 75 0 132 67 142 165 5 45 9 55 25 55 27 0 32 -24 21 -89 -6 -31
-9 -58 -7 -60 7 -8 44 85 44 113 0 28 0 28 26 11 14 -9 33 -14 42 -10 14 5 14
7 -1 22 -16 16 -15 18 4 39 l20 22 -36 6 c-59 11 -37 31 40 34 l68 3 -6 -113
c-13 -272 -127 -447 -336 -518 -144 -48 -765 -49 -921 -1 -153 47 -262 166
-313 339 -19 64 -42 254 -33 277 4 13 18 15 63 13 32 -2 58 -8 60 -15z m1051
-154 c-18 -12 -21 -11 -43 5 -19 13 -18 15 15 23 28 8 36 7 38 -5 2 -8 -2 -18
-10 -23z m-708 21 c11 -7 12 -12 3 -21 -14 -14 -53 -2 -53 17 0 16 28 18 50 4z
m-143 -85 c3 -9 3 -19 -1 -22 -7 -7 -36 16 -36 28 0 15 30 10 37 -6z m981 -2
c-2 -10 -10 -18 -18 -18 -8 0 -16 8 -18 18 -2 12 3 17 18 17 15 0 20 -5 18
-17z m-882 -477 c-3 -12 -6 -33 -6 -48 0 -16 -4 -28 -10 -28 -5 0 -10 9 -10
20 0 17 -5 19 -25 14 -21 -5 -25 -3 -25 15 0 11 -10 26 -22 32 -20 11 -20 13
-5 24 13 9 28 10 63 2 39 -9 45 -14 40 -31z m868 31 c17 -13 17 -14 2 -20 -9
-4 -21 -18 -26 -32 -8 -20 -15 -25 -30 -20 -15 5 -22 1 -29 -17 -9 -22 -10
-22 -10 -2 -1 12 -4 35 -7 52 -6 28 -4 30 32 40 22 5 42 10 45 11 3 1 13 -5
23 -12z m-619 -93 l58 -75 -34 -35 -35 -34 -55 18 c-30 11 -78 31 -107 46 -48
24 -53 30 -48 54 2 15 7 44 11 65 l6 37 73 0 73 0 58 -76z m479 29 c4 -27 9
-56 12 -65 9 -32 -147 -97 -280 -118 -38 -6 -71 -8 -74 -6 -3 3 15 27 39 53
25 27 67 78 94 115 l50 68 76 0 77 0 6 -47z m-405 -3 c27 -33 30 -44 21 -55
-7 -8 -15 -15 -19 -15 -3 0 -26 25 -49 55 l-43 55 29 0 c22 0 37 -10 61 -40z
m91 32 c0 -5 -9 -17 -20 -27 -19 -17 -21 -17 -40 0 -29 27 -25 35 20 35 22 0
40 -4 40 -8z m104 -4 c-15 -25 -89 -114 -136 -164 -39 -41 -54 -50 -74 -46
-14 2 -24 7 -22 11 2 3 41 52 88 109 76 92 88 102 118 102 24 0 31 -4 26 -12z
m-600 -81 c30 6 31 1 14 -74 -11 -45 -16 -53 -36 -53 -25 0 -63 17 -74 33 -3
6 7 38 24 71 27 53 32 58 39 40 6 -17 13 -20 33 -17z m1000 -22 c14 -31 26
-60 26 -65 0 -15 -43 -40 -71 -40 -23 0 -27 6 -37 51 -18 75 -16 81 16 77 21
-2 27 1 26 15 -3 33 14 17 40 -38z m-924 -162 c0 -2 -4 -23 -9 -46 -6 -23 -13
-55 -16 -70 -4 -22 -9 -26 -19 -18 -13 11 -8 77 9 131 5 16 35 19 35 3z m820
-36 c13 -57 11 -88 -5 -94 -12 -4 -39 123 -30 138 13 20 24 6 35 -44z m-1211
-6 c77 -40 133 -136 149 -260 23 -174 -77 -231 -174 -100 -61 83 -85 285 -41
352 21 32 18 32 66 8z m565 -40 c37 -12 80 -21 95 -21 50 0 55 -12 28 -66 -29
-58 -67 -176 -67 -210 0 -18 8 -26 33 -33 l32 -9 -30 -1 c-32 -1 -187 15 -244
25 l-34 5 6 87 c6 77 30 235 42 269 3 9 13 8 37 -6 18 -11 64 -29 102 -40z
m589 -56 c17 -92 33 -255 26 -255 -2 0 -58 -7 -124 -15 -65 -8 -133 -15 -150
-14 l-30 1 34 10 c33 9 33 10 27 55 -5 36 -43 144 -82 230 -4 7 4 14 18 17 94
18 161 38 203 58 32 16 52 20 56 14 4 -6 13 -51 22 -101z m474 83 c28 -51 24
-195 -6 -273 -31 -78 -96 -145 -140 -145 -65 0 -92 67 -72 176 24 135 80 227
155 260 43 18 43 18 63 -18z m-1490 -52 c24 -26 40 -53 37 -60 -3 -8 4 -19 15
-26 17 -9 19 -15 11 -30 -8 -15 -6 -22 11 -33 19 -14 20 -17 5 -45 -15 -29
-15 -32 1 -41 15 -8 16 -12 3 -35 -12 -23 -12 -28 4 -39 16 -12 16 -14 2 -26
-12 -11 -14 -17 -5 -27 9 -12 4 -14 -30 -14 -22 0 -41 2 -41 4 0 2 7 17 15 32
42 81 -4 291 -84 378 -21 23 -22 26 -6 18 11 -5 39 -31 62 -56z m1336 32 c-78
-81 -126 -301 -80 -371 9 -14 17 -29 17 -32 0 -3 -18 -5 -41 -5 -35 0 -40 2
-34 19 3 11 1 22 -5 26 -8 5 -7 12 4 24 14 15 14 20 2 37 -13 16 -13 21 0 35
11 13 12 22 4 44 -9 24 -8 30 10 42 17 12 19 17 8 30 -10 13 -8 18 11 34 12
10 19 24 16 30 -8 11 91 119 109 119 6 0 -4 -15 -21 -32z m-667 -219 l20 -129
-46 0 -47 0 18 118 c10 64 18 126 19 136 1 49 17 -7 36 -125z m-470 119 c9 -6
10 -44 7 -132 l-6 -124 64 -7 c35 -4 80 -15 99 -24 35 -16 34 -16 -94 -19
-139 -3 -170 5 -141 38 14 15 13 19 -5 35 -19 17 -19 19 -4 37 16 17 16 19 0
37 -14 16 -15 23 -4 46 11 24 10 29 -6 41 -16 11 -17 16 -6 29 10 12 9 18 -9
32 -21 18 -21 18 36 18 32 0 63 -3 69 -7z m993 -11 c-16 -13 -19 -20 -10 -31
8 -10 6 -17 -9 -31 -18 -16 -18 -20 -5 -46 14 -25 13 -29 -2 -38 -15 -8 -15
-13 -5 -36 11 -23 10 -30 -3 -45 -14 -15 -14 -18 0 -30 12 -10 13 -16 4 -26
-9 -11 -44 -14 -142 -14 -119 0 -130 2 -116 15 9 9 51 21 95 28 l79 12 3 67
c2 38 -1 90 -6 117 -12 66 0 79 79 77 59 -1 59 -1 38 -19z m-424 -288 c-49
-10 -219 -9 -260 0 -16 4 44 7 135 7 104 0 150 -2 125 -7z"/>
<path d="M900 1155 c-23 -28 2 -62 59 -79 45 -13 56 -13 96 1 54 18 79 47 64
75 -13 24 -28 23 -38 -5 -13 -35 -70 -49 -113 -28 -18 9 -33 22 -33 30 0 21
-20 24 -35 6z"/>
<path d="M813 1011 c-55 -34 -72 -91 -28 -91 14 0 25 4 25 9 0 4 11 20 25 35
24 26 25 26 176 26 l152 0 33 -36 c33 -34 63 -42 71 -17 3 7 -11 29 -31 50
l-34 38 -179 3 c-163 2 -181 1 -210 -17z"/>
<path d="M895 930 c-3 -5 0 -13 8 -15 24 -10 217 -1 220 10 3 14 -219 19 -228
5z"/>
</g>
</svg>
